<svg width="124" height="96" viewBox="0 0 124 96" fill="none" xmlns="http://www.w3.org/2000/svg">
<g filter="url(#filter0_d_0_1)">
<rect x="4" width="116" height="88" rx="14" fill="#0DA2E7"/>
</g>
<path d="M25.0312 20.375C27.8229 20.7083 30.2396 20.9583 32.2812 21.125C34.3229 21.25 36.0104 21.3542 37.3438 21.4375C38.8854 21.5208 40.1771 21.5417 41.2188 21.5C42.3021 21.4583 43.7812 21.3542 45.6562 21.1875C47.2396 21.0625 49.3229 20.8958 51.9062 20.6875C54.4896 20.4375 57.7188 20.1042 61.5938 19.6875C61.6354 20.6458 61.6562 21.5833 61.6562 22.5C61.6979 23.375 61.7396 24.1458 61.7812 24.8125C61.8229 25.6042 61.8438 26.3333 61.8438 27C61.8438 27.7083 61.8021 28.6042 61.7188 29.6875C61.6354 30.6042 61.4896 31.7708 61.2812 33.1875C61.1146 34.5625 60.8438 36.2083 60.4688 38.125C59.8854 35.875 59.3229 34.0625 58.7812 32.6875C58.2396 31.2708 57.7396 30.1458 57.2812 29.3125C56.7812 28.3542 56.2812 27.625 55.7812 27.125C55.2396 26.75 54.5938 26.4375 53.8438 26.1875C53.1771 25.9792 52.3229 25.8125 51.2812 25.6875C50.2812 25.5625 49.0938 25.5833 47.7188 25.75C47.5104 31.25 47.3646 35.7083 47.2812 39.125C47.1979 42.5417 47.1354 45.2083 47.0938 47.125C47.0521 49.4167 47.0312 51.0625 47.0312 52.0625C47.0729 53.4792 47.3021 54.875 47.7188 56.25C48.0521 57.4167 48.5938 58.625 49.3438 59.875C50.0938 61.125 51.1771 62.2292 52.5938 63.1875H44.9688C44.2604 63.1875 43.3854 63.2292 42.3438 63.3125C41.4688 63.3958 40.3438 63.4792 38.9688 63.5625C37.6354 63.6458 36.0729 63.7917 34.2812 64C34.9062 62.9167 35.4062 61.9375 35.7812 61.0625C36.1562 60.1875 36.4479 59.4375 36.6562 58.8125C36.9062 58.0625 37.0938 57.3958 37.2188 56.8125C37.2604 55.9792 37.3646 54.2917 37.5312 51.75C37.5729 50.7083 37.6146 49.4167 37.6562 47.875C37.7396 46.3333 37.8229 44.5 37.9062 42.375C38.0312 40.25 38.1354 37.8125 38.2188 35.0625C38.3438 32.2708 38.4688 29.125 38.5938 25.625C37.8438 25.4167 37.1354 25.4375 36.4688 25.6875C35.8021 25.8958 35.2188 26.1667 34.7188 26.5C34.1354 26.9167 33.5729 27.4167 33.0312 28C32.4896 28.7083 31.8854 29.625 31.2188 30.75C30.6354 31.7083 29.9688 32.9792 29.2188 34.5625C28.4688 36.1042 27.6146 38.0208 26.6562 40.3125C26.4479 37.8958 26.3021 35.9167 26.2188 34.375C26.1354 32.7917 26.0729 31.5625 26.0312 30.6875C25.9896 29.6458 25.9688 28.875 25.9688 28.375C25.9688 27.9167 25.9271 27.3125 25.8438 26.5625C25.7604 25.9375 25.6562 25.125 25.5312 24.125C25.4062 23.0833 25.2396 21.8333 25.0312 20.375ZM58.0312 21.625C59.4896 21.7917 60.7188 21.9167 61.7188 22C62.7188 22.0417 63.5104 22.0833 64.0938 22.125C64.8021 22.1667 65.3646 22.1875 65.7812 22.1875C66.4896 22.1875 67.3021 22.1667 68.2188 22.125C69.0104 22.0833 69.9271 22.0208 70.9688 21.9375C72.0521 21.8125 73.2188 21.625 74.4688 21.375C73.8854 22 73.4062 22.6042 73.0312 23.1875C72.6562 23.7292 72.3646 24.2292 72.1562 24.6875C71.9062 25.1875 71.6979 25.6458 71.5312 26.0625C71.3646 26.6042 71.1771 27.4375 70.9688 28.5625C70.7604 29.5208 70.5312 30.875 70.2812 32.625C70.0729 34.375 69.8021 36.6667 69.4688 39.5C70.8854 39.5417 72.1146 39.5625 73.1562 39.5625C74.1979 39.5208 75.0729 39.5 75.7812 39.5H77.8438C78.4271 39.4583 79.0938 39.4167 79.8438 39.375C81.0938 39.3333 82.9896 39.2083 85.5312 39C85.7396 37.0833 85.8438 35.4375 85.8438 34.0625C85.8854 32.6458 85.8646 31.4583 85.7812 30.5C85.6979 29.4167 85.5729 28.5 85.4062 27.75C85.2812 27.3333 85.0938 26.8333 84.8438 26.25C84.6354 25.75 84.3438 25.1458 83.9688 24.4375C83.6354 23.6875 83.1771 22.7917 82.5938 21.75C83.6771 21.9167 84.6354 22.0417 85.4688 22.125C86.3438 22.1667 87.0729 22.2083 87.6562 22.25C88.3229 22.2917 88.8854 22.3125 89.3438 22.3125C89.8021 22.3125 90.4062 22.2917 91.1562 22.25C91.7812 22.2083 92.5521 22.1875 93.4688 22.1875C94.3854 22.1458 95.5104 22.0833 96.8438 22C96.5104 22.5833 96.2188 23.1875 95.9688 23.8125C95.7188 24.4375 95.5104 25 95.3438 25.5C95.1771 26.0833 95.0104 26.6667 94.8438 27.25C94.6354 28.125 94.4479 29.3958 94.2812 31.0625C94.1562 32.7292 94.0312 34.5833 93.9062 36.625C93.8229 38.6667 93.7396 40.7917 93.6562 43C93.6146 45.2083 93.5729 47.2917 93.5312 49.25C93.5312 51.2083 93.5521 52.9583 93.5938 54.5C93.6354 56 93.7188 57.0625 93.8438 57.6875C93.9688 58.4375 94.1771 59.2083 94.4688 60C94.7188 60.7083 95.0521 61.4792 95.4688 62.3125C95.8854 63.1042 96.4271 63.8542 97.0938 64.5625L82.0312 65.6875C82.6562 65.1042 83.1562 64.5417 83.5312 64C83.9062 63.4167 84.1979 62.9167 84.4062 62.5C84.6146 62.0417 84.7604 61.6042 84.8438 61.1875C84.8854 60.6875 84.9479 59.8125 85.0312 58.5625C85.1146 57.5208 85.1979 56.0417 85.2812 54.125C85.3646 52.2083 85.4479 49.6667 85.5312 46.5C84.9479 46.5 84.2396 46.5208 83.4062 46.5625C82.6146 46.5625 81.8646 46.5833 81.1562 46.625C80.3229 46.6667 79.4479 46.6875 78.5312 46.6875C77.6146 46.7292 76.6562 46.7708 75.6562 46.8125C74.8229 46.8958 73.8854 46.9792 72.8438 47.0625C71.8438 47.1042 70.8438 47.1667 69.8438 47.25C69.7604 49 69.7604 50.5417 69.8438 51.875C69.9271 53.1667 70.0521 54.2708 70.2188 55.1875C70.3854 56.2708 70.5938 57.2083 70.8438 58C71.0938 58.75 71.3646 59.5 71.6562 60.25C71.9062 60.9167 72.1979 61.625 72.5312 62.375C72.9062 63.125 73.2812 63.7917 73.6562 64.375C72.8646 64.2917 72.1354 64.2292 71.4688 64.1875C70.8021 64.1042 70.2188 64.0208 69.7188 63.9375C69.1354 63.8958 68.5729 63.8542 68.0312 63.8125C67.4896 63.8125 66.8438 63.7917 66.0938 63.75C65.4271 63.7083 64.5938 63.6875 63.5938 63.6875C62.5938 63.6458 61.4271 63.625 60.0938 63.625C60.8854 62.8333 61.5104 62.0625 61.9688 61.3125C62.4688 60.5208 62.8229 59.8125 63.0312 59.1875C63.2812 58.4375 63.4479 57.75 63.5312 57.125C63.5729 56.5833 63.5938 55.5625 63.5938 54.0625C63.6354 52.5625 63.6354 50.8542 63.5938 48.9375C63.5938 46.9792 63.5729 44.9375 63.5312 42.8125C63.4896 40.6458 63.4271 38.625 63.3438 36.75C63.3021 34.875 63.2396 33.2708 63.1562 31.9375C63.1146 30.5625 63.0729 29.7083 63.0312 29.375C62.8229 28.625 62.5104 27.8125 62.0938 26.9375C61.7188 26.2292 61.2188 25.4167 60.5938 24.5C59.9688 23.5417 59.1146 22.5833 58.0312 21.625Z" fill="white"/>
<defs>
<filter id="filter0_d_0_1" x="0" y="0" width="124" height="96" filterUnits="userSpaceOnUse" color-interpolation-filters="sRGB">
<feFlood flood-opacity="0" result="BackgroundImageFix"/>
<feColorMatrix in="SourceAlpha" type="matrix" values="0 0 0 0 0 0 0 0 0 0 0 0 0 0 0 0 0 0 127 0" result="hardAlpha"/>
<feOffset dy="4"/>
<feGaussianBlur stdDeviation="2"/>
<feComposite in2="hardAlpha" operator="out"/>
<feColorMatrix type="matrix" values="0 0 0 0 0 0 0 0 0 0 0 0 0 0 0 0 0 0 0.25 0"/>
<feBlend mode="normal" in2="BackgroundImageFix" result="effect1_dropShadow_0_1"/>
<feBlend mode="normal" in="SourceGraphic" in2="effect1_dropShadow_0_1" result="shape"/>
</filter>
</defs>
</svg>
